<svg width="14" height="20" viewBox="0 0 14 20" fill="none" xmlns="http://www.w3.org/2000/svg">
<path fill-rule="evenodd" clip-rule="evenodd" d="M4 19C4 18.4477 4.44772 18 5 18H9C9.55228 18 10 18.4477 10 19C10 19.5523 9.55228 20 9 20H5C4.44772 20 4 19.5523 4 19Z" fill="#35383F"/>
<path fill-rule="evenodd" clip-rule="evenodd" d="M9 12.7453C9 12.0915 9.31956 11.479 9.8558 11.1049C11.156 10.198 12 8.6974 12 7C12 4.23858 9.76142 2 7 2C4.23858 2 2 4.23858 2 7C2 8.6974 2.84396 10.198 4.1442 11.1049C4.68044 11.479 5 12.0915 5 12.7453V14C5 14.5523 5.44772 15 6 15H8C8.55229 15 9 14.5523 9 14V12.7453ZM3 12.7453C1.18652 11.4804 0 9.37875 0 7C0 3.13401 3.13401 0 7 0C10.866 0 14 3.13401 14 7C14 9.37875 12.8135 11.4804 11 12.7453V14C11 15.6569 9.65685 17 8 17H6C4.34315 17 3 15.6569 3 14V12.7453Z" fill="#35383F"/>
</svg>
