<svg width="18" height="18" viewBox="0 0 18 18" fill="none" xmlns="http://www.w3.org/2000/svg">
<path d="M13.9393 12H12C11.5858 12 11.25 12.3358 11.25 12.75C11.25 13.1642 11.5858 13.5 12 13.5H15.75C16.1642 13.5 16.5 13.1642 16.5 12.75V9C16.5 8.58579 16.1642 8.25 15.75 8.25C15.3358 8.25 15 8.58579 15 9V10.9393L10.8107 6.75C10.2249 6.16421 9.27513 6.16421 8.68934 6.75L6.75 8.68934L2.78033 4.71967C2.48744 4.42678 2.01256 4.42678 1.71967 4.71967C1.42678 5.01256 1.42678 5.48744 1.71967 5.78033L5.68934 9.75C6.27513 10.3358 7.22487 10.3358 7.81066 9.75L9.75 7.81066L13.9393 12Z" fill="#FF383C"/>
</svg>
