<svg width="36" height="36" viewBox="0 0 36 36" fill="none" xmlns="http://www.w3.org/2000/svg">
<path d="M34.1541 12.7614C33.4514 11.816 32.5828 11.058 31.6072 10.5385C30.6316 10.0191 29.5717 9.75039 28.4994 9.75066H22.521L23.0245 6.18007C23.2027 4.92269 22.9877 3.63244 22.4188 2.54465C21.8499 1.45686 20.965 0.644022 19.9254 0.254387C18.8859 -0.135248 17.761 -0.0757145 16.7559 0.422129C15.7508 0.919972 14.9325 1.82295 14.4503 2.96637L12.0133 8.73074V35.9921H27.4503C29.254 35.9835 30.9951 35.2194 32.3569 33.8388C33.7186 32.4583 34.6106 30.553 34.8705 28.4696L35.9272 19.7224C36.0766 18.4816 35.9955 17.2178 35.6896 16.0167C35.3837 14.8156 34.86 13.7054 34.1541 12.7614Z" fill="#26FF3F"/>
<path d="M0 18.5057V27.2528C0.00237978 29.5719 0.792655 31.7951 2.19748 33.435C3.6023 35.0748 5.50697 35.9972 7.49368 36H8.99242V9.75854H7.49368C5.50697 9.76132 3.6023 10.6838 2.19748 12.3236C0.792655 13.9634 0.00237978 16.1867 0 18.5057Z" fill="#26FF3F"/>
</svg>
