<svg width="36" height="36" viewBox="0 0 36 36" fill="none" xmlns="http://www.w3.org/2000/svg">
<path d="M23.3571 29.705C23.652 29.1219 23.1744 28.5 22.5209 28.5H13.4789C12.8255 28.5 12.3478 29.1219 12.6428 29.705C13.6318 31.6598 15.6594 33 17.9999 33C20.3405 33 22.368 31.6598 23.3571 29.705Z" fill="white"/>
<path d="M31 25.5H5C3.89543 25.5 3 24.6046 3 23.5L3 23.3488C3 22.8064 3.22037 22.2872 3.61056 21.9103L5.49271 20.0924C5.88454 19.7139 6.10504 19.192 6.10325 18.6473L6.0783 11.0262C6.0638 6.59771 9.64974 3 14.0783 3H22C26.4183 3 30 6.58172 30 11L30 18.6716C30 19.202 30.2107 19.7107 30.5858 20.0858L32.4142 21.9142C32.7893 22.2893 33 22.798 33 23.3284V23.5C33 24.6046 32.1046 25.5 31 25.5Z" fill="white"/>
</svg>
