<svg width="33" height="27" viewBox="0 0 33 27" fill="none" xmlns="http://www.w3.org/2000/svg">
<path d="M32.7096 23.4741L18.2315 0.918617C17.8656 0.348568 17.2086 0 16.4999 0C15.7913 0 15.1343 0.348508 14.7684 0.918617L0.290423 23.4741C-0.0861126 24.0607 -0.097263 24.7924 0.261354 25.3889C0.619971 25.9854 1.29267 26.3542 2.02189 26.3542H30.978C31.7073 26.3542 32.38 25.9853 32.7386 25.3889C33.0972 24.7924 33.0861 24.0607 32.7096 23.4741ZM16.5108 7.80219C17.3423 7.80219 18.0458 8.24285 18.0458 9.0239C18.0458 11.4072 17.7474 14.8321 17.7474 17.2154C17.7474 17.8363 17.0225 18.0966 16.5108 18.0966C15.8286 18.0966 15.2529 17.8363 15.2529 17.2154C15.2529 14.8321 14.9545 11.4072 14.9545 9.0239C14.9545 8.24285 15.6366 7.80219 16.5108 7.80219ZM16.5321 22.563C15.594 22.563 14.8904 21.842 14.8904 21.0208C14.8904 20.1797 15.594 19.4787 16.5321 19.4787C17.4062 19.4787 18.1524 20.1797 18.1524 21.0208C18.1524 21.842 17.4062 22.563 16.5321 22.563Z" fill="#FF0000"/>
</svg>
