<svg width="21" height="20" viewBox="0 0 21 20" fill="none" xmlns="http://www.w3.org/2000/svg">
<path fill-rule="evenodd" clip-rule="evenodd" d="M4.80002 11L7.34261 14.1783C7.76816 14.7102 8 15.3711 8 16.0523V17.5097C8 18.7348 9.20023 19.5999 10.3625 19.2125C12.4572 18.5143 13.7326 16.3959 13.3696 14.2179L13 12L17.1591 11.9982C19.1104 11.9974 20.5416 10.1634 20.0682 8.27042L18.5682 2.2722C18.2343 0.936792 17.0344 0 15.6578 0H6C5.99677 0 5.99355 7.63509e-06 5.99033 2.28882e-05H3C1.34315 2.28882e-05 0 1.34317 0 3.00002V8.00002C0 9.65688 1.34315 11 3 11H4.80002ZM11.0272 12.3288C10.9306 11.749 11.0939 11.1561 11.4737 10.7076C11.8535 10.259 12.4114 10.0003 12.9991 10L17.1582 9.99822C17.8087 9.99794 18.2857 9.38661 18.1279 8.75562L16.628 2.7574C16.5166 2.31226 16.1167 2 15.6578 2H6V9.29844L8.90434 12.9289C9.6136 13.8154 10 14.917 10 16.0523V17.2074C10.9985 16.7398 11.582 15.6572 11.3969 14.5467L11.0272 12.3288ZM4 9.00002V2.00002H3C2.44772 2.00002 2 2.44774 2 3.00002V8.00002C2 8.55231 2.44772 9.00002 3 9.00002H4Z" fill="#35383F"/>
</svg>
