<svg width="15" height="9" viewBox="0 0 15 9" fill="none" xmlns="http://www.w3.org/2000/svg">
<path d="M12.4393 7.5H10.5C10.0858 7.5 9.75 7.83579 9.75 8.25C9.75 8.66421 10.0858 9 10.5 9H14.25C14.6642 9 15 8.66421 15 8.25V4.5C15 4.08579 14.6642 3.75 14.25 3.75C13.8358 3.75 13.5 4.08579 13.5 4.5V6.43934L9.31066 2.25C8.72487 1.66421 7.77513 1.66421 7.18934 2.25L5.25 4.18934L1.28033 0.21967C0.987437 -0.0732234 0.512563 -0.0732234 0.21967 0.21967C-0.0732233 0.512563 -0.0732233 0.987437 0.21967 1.28033L4.18934 5.25C4.77513 5.83579 5.72487 5.83579 6.31066 5.25L8.25 3.31066L12.4393 7.5Z" fill="#FF383C"/>
</svg>
