<svg width="39" height="39" viewBox="0 0 39 39" fill="none" xmlns="http://www.w3.org/2000/svg">
<path d="M19.5 11.375C20.3975 11.375 21.125 12.1025 21.125 13V17.875H26C26.8975 17.875 27.625 18.6025 27.625 19.5C27.625 20.3975 26.8975 21.125 26 21.125H21.125V26C21.125 26.8975 20.3975 27.625 19.5 27.625C18.6025 27.625 17.875 26.8975 17.875 26V21.125H13C12.1025 21.125 11.375 20.3975 11.375 19.5C11.375 18.6025 12.1025 17.875 13 17.875H17.875V13C17.875 12.1025 18.6025 11.375 19.5 11.375Z" fill="#35383F"/>
</svg>
