<svg width="15" height="9" viewBox="0 0 15 9" fill="none" xmlns="http://www.w3.org/2000/svg">
<path fill-rule="evenodd" clip-rule="evenodd" d="M10.5 0C10.0858 0 9.75 0.335786 9.75 0.75C9.75 1.16421 10.0858 1.5 10.5 1.5H12.4393L8.25 5.68934L6.31066 3.75C5.72487 3.16421 4.77513 3.16421 4.18934 3.75L0.21967 7.71967C-0.0732233 8.01256 -0.0732233 8.48744 0.21967 8.78033C0.512563 9.07322 0.987437 9.07322 1.28033 8.78033L5.25 4.81066L7.18934 6.75C7.77513 7.33579 8.72487 7.33579 9.31066 6.75L13.5 2.56066V4.5C13.5 4.91421 13.8358 5.25 14.25 5.25C14.6642 5.25 15 4.91421 15 4.5V0.75C15 0.335786 14.6642 0 14.25 0H10.5Z" fill="#34C759"/>
</svg>
