<svg width="36" height="36" viewBox="0 0 36 36" fill="none" xmlns="http://www.w3.org/2000/svg">
<path d="M5.31396 22.7759C4.96422 22.5685 4.5 22.8113 4.5 23.2179V25.5C4.5 28.9084 10.4258 31.5 18 31.5C25.5742 31.5 31.5 28.9084 31.5 25.5V23.2179C31.5 22.8113 31.0358 22.5685 30.686 22.7759C30.281 23.016 29.8532 23.2386 29.4071 23.444C26.6668 24.7051 22.8357 25.5 18 25.5C13.1643 25.5 9.33316 24.7051 6.59294 23.444C6.1468 23.2386 5.71898 23.016 5.31396 22.7759Z" fill="white"/>
<path d="M31.5 9.12857C31.5 11.6849 25.4558 13.5 18 13.5C10.5442 13.5 4.5 11.6849 4.5 9.12857C4.5 6.57228 10.5442 4.5 18 4.5C25.4558 4.5 31.5 6.57228 31.5 9.12857Z" fill="white"/>
<path d="M18 16.5C21.9308 16.5 25.6303 16.026 28.4513 15.133C29.2332 14.8855 30.0041 14.5884 30.7196 14.2284C31.0686 14.0528 31.5 14.2975 31.5 14.6882V17.25C31.5 19.5 27.0742 22.5 18 22.5C8.9258 22.5 4.5 19.5 4.5 17.25V14.6882C4.5 14.2975 4.93135 14.0528 5.28038 14.2284C5.99592 14.5884 6.76681 14.8855 7.5487 15.133C10.3697 16.026 14.0692 16.5 18 16.5Z" fill="white"/>
</svg>
