<svg width="25" height="24" viewBox="0 0 25 24" fill="none" xmlns="http://www.w3.org/2000/svg">
<path fill-rule="evenodd" clip-rule="evenodd" d="M10.1548 10.9762C10.7279 11.4265 11.0625 12.115 11.0625 12.8438V20.7716L13.4375 19.936V12.8438C13.4375 12.115 13.7721 11.4265 14.3452 10.9762L21.2962 5.51475C21.5827 5.28962 21.75 4.9454 21.75 4.581V2.75H2.75V4.581C2.75 4.9454 2.9173 5.28962 3.20384 5.51475L10.1548 10.9762ZM22.7635 7.38226L15.8125 12.8438V20.777C15.8125 21.2809 15.4945 21.73 15.0191 21.8972L10.2691 23.5685C9.49672 23.8403 8.6875 23.2671 8.6875 22.4483V12.8438L1.73651 7.38226C0.876914 6.70686 0.375 5.67419 0.375 4.581V2.75C0.375 1.43832 1.43832 0.375 2.75 0.375H21.75C23.0617 0.375 24.125 1.43832 24.125 2.75V4.581C24.125 5.67419 23.6231 6.70686 22.7635 7.38226Z" fill="white"/>
</svg>
