<svg width="49" height="49" viewBox="0 0 49 49" fill="none" xmlns="http://www.w3.org/2000/svg">
<path d="M6.125 12.25H10.2083H42.875" stroke="#072F4E" stroke-width="2" stroke-linecap="round" stroke-linejoin="round"/>
<path d="M16.3335 12.2499V8.16659C16.3335 7.08362 16.7637 6.04501 17.5295 5.27923C18.2953 4.51346 19.3339 4.08325 20.4168 4.08325H28.5835C29.6665 4.08325 30.7051 4.51346 31.4708 5.27923C32.2366 6.04501 32.6668 7.08362 32.6668 8.16659V12.2499M38.7918 12.2499V40.8333C38.7918 41.9162 38.3616 42.9548 37.5958 43.7206C36.8301 44.4864 35.7915 44.9166 34.7085 44.9166H14.2918C13.2089 44.9166 12.1703 44.4864 11.4045 43.7206C10.6387 42.9548 10.2085 41.9162 10.2085 40.8333V12.2499H38.7918Z" stroke="#072F4E" stroke-width="2" stroke-linecap="round" stroke-linejoin="round"/>
<path d="M20.4165 22.4583V34.7082" stroke="#072F4E" stroke-width="2" stroke-linecap="round" stroke-linejoin="round"/>
<path d="M28.5835 22.4583V34.7082" stroke="#072F4E" stroke-width="2" stroke-linecap="round" stroke-linejoin="round"/>
</svg>
