<svg width="23" height="23" viewBox="0 0 23 23" fill="none" xmlns="http://www.w3.org/2000/svg">
<path fill-rule="evenodd" clip-rule="evenodd" d="M19.375 11.0625C19.375 15.6534 15.6534 19.375 11.0625 19.375C6.47163 19.375 2.75 15.6534 2.75 11.0625C2.75 6.47163 6.47163 2.75 11.0625 2.75C15.6534 2.75 19.375 6.47163 19.375 11.0625ZM19.4129 17.7335C20.8754 15.9051 21.75 13.586 21.75 11.0625C21.75 5.15996 16.965 0.375 11.0625 0.375C5.15996 0.375 0.375 5.15996 0.375 11.0625C0.375 16.965 5.15996 21.75 11.0625 21.75C13.586 21.75 15.9051 20.8754 17.7335 19.4129L20.9103 22.5897C21.3741 23.0534 22.1259 23.0534 22.5897 22.5897C23.0534 22.1259 23.0534 21.3741 22.5897 20.9103L19.4129 17.7335Z" fill="#FFFBFB"/>
</svg>
