<svg width="36" height="36" viewBox="0 0 36 36" fill="none" xmlns="http://www.w3.org/2000/svg">
<path d="M27.457 14.9203C27.893 15.8414 28.4344 16.5516 29.0883 17.0367C29.7422 17.5289 30.3539 17.8242 30.9235 17.9297C31.493 18.0352 32.0906 18.3516 32.7164 18.8648C33.3422 19.3781 33.8133 20.1305 34.1438 21.1078C34.7414 22.7883 33.736 24.975 31.1274 27.668C28.5188 30.3539 25.0945 32.4914 20.8617 34.0664C16.411 35.6414 12.375 36.2531 8.76096 35.9016C5.14689 35.55 3.04455 34.5305 2.44689 32.843C1.90549 31.3734 2.06721 29.8688 2.93908 28.3219C3.81096 26.775 4.05002 25.2633 3.67033 23.8008C2.15158 18.5836 1.51174 14.5125 1.75783 11.5805C2.00393 8.64844 3.52971 6.03985 6.34924 3.76172C7.05236 3.16407 7.44611 2.47501 7.53049 1.68751C7.61486 0.900005 8.00861 0.372662 8.71174 0.0984428C9.36564 -0.119526 9.99142 0.0421927 10.5891 0.59063C11.1867 1.13204 11.9461 1.37813 12.8672 1.32188C16.4531 1.26563 19.1391 2.16563 20.932 4.00782C22.725 5.85 24.9047 9.49219 27.457 14.9203ZM19.8774 31.3805C22.268 30.5086 24.4266 29.3555 26.3531 27.9211C28.2797 26.4867 29.6367 25.2492 30.4242 24.2156C31.2117 23.182 31.5492 22.507 31.4438 22.1766C31.2258 21.5789 30.5578 21.1289 29.4469 20.8336C28.336 20.5383 26.6485 20.5242 24.3985 20.7914C22.1485 21.0586 19.6031 21.7125 16.7836 22.7461C14.0133 23.7797 11.6649 24.9609 9.7383 26.2898C7.81174 27.6188 6.52502 28.7578 5.90627 29.7141C5.28049 30.6633 5.04846 31.3875 5.21721 31.8727C5.32267 32.1961 6.00471 32.4984 7.25627 32.7656C8.50783 33.0328 10.3219 33.0891 12.7125 32.9273C15.0961 32.7656 17.4867 32.2523 19.8774 31.3805ZM17.3531 24.293C17.5711 24.2367 17.8524 24.1453 18.211 24.0047C18.5695 23.8641 18.7945 23.7727 18.9 23.7164L18.9844 23.8008C19.3641 24.8906 19.132 26.0156 18.2953 27.1828C17.4516 28.35 16.2422 29.2078 14.6672 29.7492C12.0586 30.7266 9.99846 30.5367 8.47267 29.1797C10.5891 27.3375 13.5492 25.7063 17.3531 24.293Z" fill="#FFE710"/>
</svg>
