<svg width="34" height="34" viewBox="0 0 34 34" fill="none" xmlns="http://www.w3.org/2000/svg">
<path d="M22.0266 28.1183C22.329 27.539 21.8515 26.9165 21.198 26.9165H12.8017C12.1483 26.9165 11.6708 27.539 11.9731 28.1183C12.9187 29.9299 14.8149 31.1665 16.9999 31.1665C19.1848 31.1665 21.081 29.9299 22.0266 28.1183Z" fill="#35383F"/>
<path d="M29.1663 24.0835H4.82212C3.72356 24.0835 2.83301 23.1929 2.83301 22.0944C2.83301 21.5549 3.05217 21.0385 3.44024 20.6637L5.15316 19.0092C5.54499 18.6308 5.76549 18.1089 5.7637 17.5641L5.74175 10.8597C5.72725 6.4312 9.31319 2.8335 13.7417 2.8335H20.333C24.7513 2.8335 28.333 6.41521 28.333 10.8335L28.333 17.5884C28.333 18.1188 28.5437 18.6275 28.9188 19.0026L30.5805 20.6644C30.9556 21.0394 31.1663 21.5496 31.1663 22.08C31.1663 23.1846 30.2709 24.0835 29.1663 24.0835Z" fill="#35383F"/>
</svg>
