<svg width="66" height="66" viewBox="0 0 66 66" fill="none" xmlns="http://www.w3.org/2000/svg">
<path d="M60.4175 6.4075C58.4375 4.1525 55.495 2.75 52.25 2.75C49.17 2.75 46.365 4.015 44.3575 6.0775C43.2025 7.26 42.3225 8.69 41.8 10.285C41.4425 11.385 41.25 12.54 41.25 13.75C41.25 15.8125 41.8275 17.765 42.845 19.415C43.395 20.35 44.11 21.2025 44.935 21.9175C46.86 23.6775 49.4175 24.75 52.25 24.75C53.46 24.75 54.615 24.5575 55.6875 24.1725C58.2175 23.375 60.335 21.6425 61.655 19.415C62.2325 18.48 62.6725 17.4075 62.92 16.3075C63.14 15.4825 63.25 14.63 63.25 13.75C63.25 10.945 62.1775 8.36 60.4175 6.4075ZM56.3475 15.7575H54.3125V17.9025C54.3125 19.03 53.3775 19.965 52.25 19.965C51.1225 19.965 50.1875 19.03 50.1875 17.9025V15.7575H48.1525C47.025 15.7575 46.09 14.8225 46.09 13.695C46.09 12.5675 47.025 11.6325 48.1525 11.6325H50.1875V9.68C50.1875 8.5525 51.1225 7.6175 52.25 7.6175C53.3775 7.6175 54.3125 8.5525 54.3125 9.68V11.6325H56.3475C57.475 11.6325 58.41 12.5675 58.41 13.695C58.41 14.8225 57.5025 15.7575 56.3475 15.7575Z" fill="white"/>
<path d="M60.5 33C60.5 29.3975 59.8125 25.9325 58.52 22.77C57.6675 23.375 56.705 23.8425 55.6875 24.1725C55.385 24.2825 55.0825 24.365 54.7525 24.4475C55.7975 27.0875 56.375 29.975 56.375 33C56.375 39.38 53.79 45.1825 49.61 49.4175C48.8125 48.4 47.795 47.465 46.585 46.6675C39.1325 41.6625 26.9225 41.6625 19.415 46.6675C18.205 47.465 17.215 48.4 16.39 49.4175C12.21 45.1825 9.625 39.38 9.625 33C9.625 20.1025 20.1025 9.625 33 9.625C35.9975 9.625 38.885 10.2025 41.525 11.2475C41.6075 10.9175 41.69 10.615 41.8 10.285C42.13 9.2675 42.5975 8.3325 43.23 7.48C40.0675 6.1875 36.6025 5.5 33 5.5C17.8475 5.5 5.5 17.8475 5.5 33C5.5 40.975 8.9375 48.1525 14.3825 53.185C14.3825 53.2125 14.3825 53.2125 14.355 53.24C14.63 53.515 14.96 53.735 15.235 53.9825C15.4 54.12 15.5375 54.2575 15.7025 54.3675C16.1975 54.78 16.7475 55.165 17.27 55.55C17.4625 55.6875 17.6275 55.7975 17.82 55.935C18.3425 56.2925 18.8925 56.6225 19.47 56.925C19.6625 57.035 19.8825 57.1725 20.075 57.2825C20.625 57.585 21.2025 57.86 21.8075 58.1075C22.0275 58.2175 22.2475 58.3275 22.4675 58.41C23.0725 58.6575 23.6775 58.8775 24.2825 59.07C24.5025 59.1525 24.7225 59.235 24.9425 59.29C25.6025 59.4825 26.2625 59.6475 26.9225 59.8125C27.115 59.8675 27.3075 59.9225 27.5275 59.95C28.2975 60.115 29.0675 60.225 29.865 60.3075C29.975 60.3075 30.085 60.335 30.195 60.3625C31.13 60.445 32.065 60.5 33 60.5C33.935 60.5 34.87 60.445 35.7775 60.3625C35.8875 60.3625 35.9975 60.335 36.1075 60.3075C36.905 60.225 37.675 60.115 38.445 59.95C38.6375 59.9225 38.83 59.84 39.05 59.8125C39.71 59.6475 40.3975 59.51 41.03 59.29C41.25 59.2075 41.47 59.125 41.69 59.07C42.295 58.85 42.9275 58.6575 43.505 58.41C43.725 58.3275 43.945 58.2175 44.165 58.1075C44.7425 57.86 45.32 57.585 45.8975 57.2825C46.1175 57.1725 46.31 57.035 46.5025 56.925C47.0525 56.595 47.6025 56.2925 48.1525 55.935C48.345 55.825 48.51 55.6875 48.7025 55.55C49.2525 55.165 49.775 54.78 50.27 54.3675C50.435 54.23 50.5725 54.0925 50.7375 53.9825C51.04 53.735 51.3425 53.4875 51.6175 53.24C51.6175 53.2125 51.6175 53.2125 51.59 53.185C57.0625 48.1525 60.5 40.975 60.5 33Z" fill="white"/>
<path d="M33 19.0575C27.3075 19.0575 22.6875 23.6775 22.6875 29.37C22.6875 34.9525 27.06 39.49 32.8625 39.655C32.945 39.655 33.055 39.655 33.11 39.655C33.165 39.655 33.2475 39.655 33.3025 39.655C33.33 39.655 33.3575 39.655 33.3575 39.655C38.9125 39.4625 43.285 34.9525 43.3125 29.37C43.3125 23.6775 38.6925 19.0575 33 19.0575Z" fill="white"/>
</svg>
