<svg width="66" height="66" viewBox="0 0 66 66" fill="none" xmlns="http://www.w3.org/2000/svg">
<path d="M9.05382 41.3305C8.71194 41.1105 8.25 41.3504 8.25 41.757V46.75C8.25 52.9987 19.114 57.75 33 57.75C46.886 57.75 57.75 52.9987 57.75 46.75V41.757C57.75 41.3504 57.2881 41.1105 56.9462 41.3305C56.0056 41.936 54.9883 42.4857 53.9129 42.9806C48.8892 45.2927 41.8654 46.75 33 46.75C24.1346 46.75 17.1108 45.2927 12.0871 42.9806C11.0117 42.4857 9.99442 41.936 9.05382 41.3305Z" fill="#1F547E"/>
<path d="M57.75 16.7357C57.75 21.4222 46.669 24.75 33 24.75C19.331 24.75 8.25 21.4222 8.25 16.7357C8.25 12.0492 19.331 8.25 33 8.25C46.669 8.25 57.75 12.0492 57.75 16.7357Z" fill="#1F547E"/>
<path d="M33 30.2499C40.2065 30.2499 46.9889 29.3809 52.1607 27.7438C53.8374 27.213 55.4864 26.5578 56.9778 25.7394C57.3203 25.5514 57.75 25.7937 57.75 26.1844V31.6249C57.75 35.7499 49.636 41.2499 33 41.2499C16.364 41.2499 8.25 35.7499 8.25 31.6249V26.1844C8.25 25.7937 8.67968 25.5514 9.0222 25.7394C10.5136 26.5578 12.1626 27.213 13.8393 27.7438C19.0111 29.3809 25.7935 30.2499 33 30.2499Z" fill="#1F547E"/>
</svg>
