<svg width="24" height="24" viewBox="0 0 24 24" fill="none" xmlns="http://www.w3.org/2000/svg">
<path fill-rule="evenodd" clip-rule="evenodd" d="M13.0272 9.67104C12.9306 10.2508 13.0939 10.8437 13.4737 11.2923C13.8535 11.7408 14.4114 11.9996 14.9991 11.9998L19.1582 12.0016C19.8087 12.0019 20.2857 12.6132 20.1279 13.2442L18.628 19.2424C18.5166 19.6876 18.1167 19.9998 17.6578 19.9998H8V12.7014L10.9043 9.07097C11.6136 8.18441 12 7.08285 12 5.9475V4.79244C12.9985 5.26001 13.582 6.34261 13.3969 7.45316L13.0272 9.67104ZM6.8 10.9998L9.34261 7.82158C9.76816 7.28964 10 6.62871 10 5.9475V4.49011C10 3.26499 11.2002 2.39992 12.3625 2.78733C14.4572 3.48557 15.7326 5.60397 15.3696 7.78196L15 9.99984L19.1591 10.0016C21.1104 10.0025 22.5416 11.8364 22.0682 13.7294L20.5682 19.7276C20.2343 21.063 19.0344 21.9998 17.6578 21.9998H8H5C3.34315 21.9998 2 20.6567 2 18.9998V13.9998C2 12.343 3.34315 10.9998 5 10.9998H6.8ZM6 12.9998H5C4.44772 12.9998 4 13.4476 4 13.9998V18.9998C4 19.5521 4.44772 19.9998 5 19.9998H6V12.9998Z" fill="#35383F"/>
</svg>
