<svg width="24" height="24" viewBox="0 0 24 24" fill="none" xmlns="http://www.w3.org/2000/svg">
<path fill-rule="evenodd" clip-rule="evenodd" d="M6.80002 14L9.34261 17.1783C9.76816 17.7102 10 18.3711 10 19.0523V20.5097C10 21.7348 11.2002 22.5999 12.3625 22.2125C14.4572 21.5143 15.7326 19.3959 15.3696 17.2179L15 15L19.1591 14.9982C21.1104 14.9974 22.5416 13.1634 22.0682 11.2704L20.5682 5.2722C20.2343 3.93679 19.0344 3 17.6578 3H8C7.99677 3 7.99355 3.00001 7.99033 3.00002H5C3.34315 3.00002 2 4.34317 2 6.00002V11C2 12.6569 3.34315 14 5 14H6.80002ZM13.0272 15.3288C12.9306 14.749 13.0939 14.1561 13.4737 13.7076C13.8535 13.259 14.4114 13.0003 14.9991 13L19.1582 12.9982C19.8087 12.9979 20.2857 12.3866 20.1279 11.7556L18.628 5.7574C18.5166 5.31226 18.1167 5 17.6578 5H8V12.2984L10.9043 15.9289C11.6136 16.8154 12 17.917 12 19.0523V20.2074C12.9985 19.7398 13.582 18.6572 13.3969 17.5467L13.0272 15.3288ZM6 12V5.00002H5C4.44772 5.00002 4 5.44774 4 6.00002V11C4 11.5523 4.44772 12 5 12H6Z" fill="#35383F"/>
</svg>
