<svg width="531" height="508" viewBox="0 0 531 508" fill="none" xmlns="http://www.w3.org/2000/svg">
<g clip-path="url(#clip0_10_85)">
<path d="M17.9999 501C9.63992 502.2 4.25992 502.24 3.55992 501.1C3.24992 500.6 3.10992 388.53 3.24992 252.05C3.48992 15.54 3.57992 3.99995 5.24992 6.05995C6.20992 7.24995 6.99992 9.04995 6.99992 10.06C6.99992 11.07 7.68992 12.29 8.52992 12.76C9.36992 13.23 10.2899 14.87 10.5699 16.41C10.8499 17.95 12.3599 21.75 13.9199 24.85C15.4799 27.96 18.8799 35.67 21.4599 42C24.0499 48.32 26.4799 53.94 26.8799 54.5C27.2699 55.05 28.6599 58.2 29.9799 61.5C31.2899 64.8 33.1799 68.85 34.1699 70.5C36.1299 73.75 36.4999 74.53 41.7299 86.5C43.6499 90.9 45.9099 96.07 46.7599 98C49.1899 103.51 55.8999 117.16 56.7899 118.39C57.2299 119 59.0899 123.1 60.9299 127.5C62.7599 131.9 66.0499 139.32 68.2399 144C70.4299 148.68 74.1499 157 76.5099 162.5C80.7099 172.28 84.1399 179.85 91.2399 195C98.5299 210.57 104 222.65 104 223.19C104 223.51 106.93 229.86 110.5 237.31C117.2 251.27 118.03 254 115.57 254C114.39 254 114.22 256.18 114.56 266.75C114.79 273.76 115.18 325.22 115.44 381.1C115.46 386.28 115.48 391.21 115.5 395.9C115.87 475.44 115.92 485.72 112.67 486.9C112.19 487.07 111.63 487.05 110.99 487.02C110.74 487.01 110.47 487 110.19 487C108.71 486.99 103.9 487.65 99.4999 488.46C88.3899 490.5 74.5599 492.67 60.9999 494.49C54.6699 495.34 43.8799 496.94 36.9999 498.05C30.1199 499.16 21.5799 500.49 17.9999 501ZM528.9 500.75C528.96 502.65 528.46 503 525.66 503C523.83 503 522.15 502.81 521.92 502.58C521.69 502.35 517.45 501.67 512.5 501.06C507.55 500.44 498.77 499.12 493 498.1C487.23 497.09 477.77 495.52 472 494.6C461.2 492.9 451.91 491.39 434.5 488.51C429 487.6 423.38 486.31 422 485.64L419.5 484.42L419.25 369.33C419.02 268.6 418.8 254.08 417.5 253C415.46 251.31 415.6 249.91 418.43 243.77C419.76 240.87 424.07 231.3 428.01 222.5C431.95 213.7 436.22 204.25 437.49 201.5C438.77 198.75 440.84 194.02 442.08 191C443.33 187.98 445.1 184.38 446.01 183C446.92 181.62 448.85 177.57 450.28 174C453.21 166.7 460.99 149.07 463.3 144.5C466.41 138.35 472 126.17 472 125.55C472 125.2 473.3 122.12 474.89 118.71C477.93 112.16 487.28 91.59 489.52 86.5C490.25 84.85 491.16 82.38 491.55 81C491.94 79.62 493.02 77.38 493.96 76C494.89 74.62 496.26 71.93 497 70C497.74 68.07 500.29 62.31 502.67 57.19C505.05 52.07 507 47.65 507 47.38C507 47.1 508.09 44.54 509.42 41.69C510.75 38.83 513.95 31.77 516.54 26C526.97 2.68995 527.41 2.00995 528.36 7.79995C528.7 9.83995 528.94 121.07 528.89 255C528.85 388.92 528.85 499.51 528.9 500.75ZM481.09 486.35C484.17 489.86 487.7 485.57 484.79 481.83C483.47 480.15 482.53 480.18 467.23 482.41C465.43 482.67 464.19 482.49 464.49 482.02C465.29 480.73 461.99 477.85 460.13 478.21C459.23 478.39 458.5 479.42 458.5 480.51C458.5 481.95 459.28 482.59 461.31 482.82C462.85 483 464.35 483.75 464.63 484.49C465.03 485.52 466.86 485.71 472.41 485.29C478.31 484.84 479.94 485.04 481.09 486.35ZM443.48 486.08C444.18 487.9 454.42 487.98 456.22 486.18C458.08 484.32 455.52 483.03 450 483.03C444.85 483.03 442.69 484.04 443.48 486.08ZM296.83 482.12C295.25 483.13 283.56 483.1 280 482.09C277.88 481.48 278.24 481.27 282.39 480.69C291.79 479.37 299.91 480.17 296.83 482.12ZM420.67 482.57C421.27 484.15 422.03 484.31 424.46 483.38C425.95 482.81 425.94 482.6 424.39 480.88C423.14 479.5 422.36 479.29 421.41 480.08C420.7 480.66 420.37 481.79 420.67 482.57ZM475.1 491.55C476.79 492.46 478.02 492.53 479.39 491.79C481.12 490.87 481.15 490.66 479.7 489.85C478.81 489.35 476.87 489.24 475.4 489.61L472.73 490.28L475.1 491.55ZM507.24 496.34C509.93 497.42 511.94 497.01 511.36 495.5C510.73 493.86 507.45 493.46 506.55 494.91C506.24 495.42 506.55 496.06 507.24 496.34ZM460 488C460 488.55 461.01 488.99 462.25 488.98C464.07 488.97 464.21 488.78 463 488C461.06 486.75 460 486.75 460 488ZM434 480C434 480.55 434.67 481 435.5 481C436.33 481 437 480.55 437 480C437 479.45 436.33 479 435.5 479C434.67 479 434 479.45 434 480Z" fill="#003882"/>
<path d="M0 0H531L411.5 0.48L469.13 0.75C515.78 0.97 526.98 1.27 527.88 2.35C527.99 2.49 528.09 3.92 528.19 6.78C527.32 2.19 526.31 4.17 516.54 26C513.95 31.77 510.75 38.83 509.42 41.69C508.09 44.54 507 47.1 507 47.38C507 47.65 505.05 52.07 502.67 57.19C500.29 62.31 497.74 68.07 497 70C496.26 71.93 494.89 74.62 493.96 76C493.02 77.38 491.94 79.62 491.55 81C491.16 82.38 490.25 84.85 489.52 86.5C487.28 91.59 477.93 112.16 474.89 118.71C473.3 122.12 472 125.2 472 125.55C472 126.17 466.41 138.35 463.3 144.5C460.99 149.07 453.21 166.7 450.28 174C448.85 177.57 446.92 181.62 446.01 183C445.1 184.38 443.33 187.98 442.08 191C440.84 194.02 438.77 198.75 437.49 201.5C436.22 204.25 431.95 213.7 428.01 222.5C424.07 231.3 419.76 240.87 418.43 243.77C415.6 249.91 415.46 251.31 417.5 253C418.8 254.08 419.02 268.6 419.25 369.33L419.5 483.39C417.99 477.23 417.99 456.85 418 387.01C418 381.43 418 375.53 418 369.31C418 272.51 417.78 254.64 416.6 253.46C414.72 251.57 413.73 252.87 411.1 260.69C409.96 264.09 406.99 270.93 404.51 275.87C402.03 280.82 400 285.09 400 285.37C400 285.65 395.05 296.51 389 309.5C382.95 322.49 378 333.3 378 333.5C378 333.71 376.03 338.07 373.63 343.19C371.23 348.31 368.25 354.75 367.02 357.5C363.48 365.37 354.2 385.51 348.87 396.86C346.19 402.56 344 407.54 344 407.92C344 408.31 343.07 410.55 341.94 412.9C340.14 416.62 324.42 451.21 318.03 465.5C316.8 468.25 314.86 472.58 313.72 475.12C312.58 477.66 310.72 480.32 309.58 481.04C308.68 481.6 305.31 481.93 296.85 482.12C299.89 480.17 291.78 479.37 282.39 480.69C278.24 481.27 277.88 481.48 280 482.09C280.24 482.16 280.52 482.22 280.82 482.28C276.19 482.3 270.85 482.3 264.72 482.29C225.97 482.25 221.75 482.09 220.06 480.56C219.03 479.62 213.58 468.43 207.95 455.68C202.32 442.93 196.7 430.25 195.46 427.5C194.21 424.75 191.63 418.9 189.73 414.5C187.82 410.1 179.64 391.88 171.55 374C163.46 356.12 155.02 337.45 152.79 332.5C150.56 327.55 146.28 318.33 143.28 312C140.28 305.67 136.93 298.25 135.83 295.5C134.74 292.75 133 288.92 131.98 287C130.96 285.08 127.79 278.1 124.94 271.5C119.96 259.97 116.29 254.12 115.03 255.74C114.88 255.93 114.81 267.3 114.82 285.72C114.72 275.74 114.63 268.99 114.56 266.75C114.22 256.18 114.39 254 115.57 254C118.03 254 117.2 251.27 110.5 237.31C106.93 229.86 104 223.51 104 223.19C104 222.65 98.53 210.57 91.24 195C84.14 179.85 80.71 172.28 76.51 162.5C74.15 157 70.43 148.68 68.24 144C66.05 139.32 62.76 131.9 60.93 127.5C59.09 123.1 57.23 119 56.79 118.39C55.9 117.16 49.19 103.51 46.76 98C45.91 96.07 43.65 90.9 41.73 86.5C36.5 74.53 36.13 73.75 34.17 70.5C33.18 68.85 31.29 64.8 29.98 61.5C28.66 58.2 27.27 55.05 26.88 54.5C26.48 53.94 24.05 48.32 21.46 42C18.88 35.67 15.48 27.96 13.92 24.85C12.36 21.75 10.85 17.95 10.57 16.41C10.29 14.87 9.37 13.23 8.53 12.76C7.69 12.29 7 11.07 7 10.06C7 9.05 6.21 7.25 5.25 6.06C3.58 4 3.49 15.54 3.25 252.05C3.14 362.14 3.21 456.35 3.4 488.93C2.93 468.38 2.89 415.16 2.93 278.26C2.97 155.74 2.75 43.99 2.44 29.92C1.95 7.49 2.07 4.19 3.44 3.05C4.69 2.01 17.01 1.79 64.58 1.93C97.34 2.03 125.15 2.49 126.37 2.95C129.5 4.14 130.33 5.37 134.81 15.57C139.68 26.63 142.56 32.75 159.78 68.5C167.19 83.9 174.28 98.75 175.52 101.5C176.76 104.25 182.78 116.76 188.89 129.31C195 141.85 200 152.25 200 152.41C200 152.81 217.05 188.26 238.49 232.46C247.1 250.2 253.96 264.61 258.61 274.69C259.92 277.54 261 280.8 261 281.94C261 284.59 264.41 284.71 266.62 282.13C267.5 281.11 269.76 276.72 271.64 272.38C275.55 263.39 276.08 262.26 286.52 240.5C290.75 231.7 295.79 221.12 297.74 217C299.68 212.88 306.38 198.82 312.63 185.76C318.88 172.71 324 161.84 324 161.62C324 161.21 330.37 147.86 345.54 116.5C353.27 100.52 364.23 77.34 373.19 58C375.36 53.33 378.64 46.35 380.48 42.5C392.59 17.19 395.83 10.22 396.49 8C397.42 4.9 399.87 2.02 402.5 0.95C402.51 0.94 402.51 0.94 402.51 0.94C402.51 0.49 312.82 0.1 202.25 0.06L0 0ZM481.09 486.35C479.94 485.04 478.31 484.84 472.41 485.29C466.86 485.71 465.03 485.52 464.63 484.49C464.35 483.75 462.85 483 461.31 482.82C459.28 482.59 458.5 481.95 458.5 480.51C458.5 479.42 459.23 478.39 460.13 478.21C461.99 477.85 465.29 480.73 464.49 482.02C464.19 482.49 465.43 482.67 467.23 482.41C482.53 480.18 483.47 480.15 484.79 481.83C487.7 485.57 484.17 489.86 481.09 486.35ZM443.48 486.08C442.69 484.04 444.85 483.03 450 483.03C455.52 483.03 458.08 484.32 456.22 486.18C454.42 487.98 444.18 487.9 443.48 486.08ZM420.67 482.57C420.37 481.79 420.7 480.66 421.41 480.08C422.36 479.29 423.14 479.5 424.39 480.88C425.94 482.6 425.95 482.81 424.46 483.38C422.03 484.31 421.27 484.15 420.67 482.57ZM475.1 491.55L472.73 490.28L475.4 489.61C476.87 489.24 478.81 489.35 479.7 489.85C481.15 490.66 481.12 490.87 479.39 491.79C478.02 492.53 476.79 492.46 475.1 491.55ZM507.24 496.34C506.55 496.06 506.24 495.42 506.55 494.91C507.45 493.46 510.73 493.86 511.36 495.5C511.94 497.01 509.93 497.42 507.24 496.34ZM528.9 500.75C528.85 499.51 528.85 388.92 528.89 255C528.92 175.24 528.85 103.53 528.71 58.14C528.88 97.64 528.93 160.01 528.9 251.1C528.85 387.17 528.86 499.57 528.91 500.89C528.97 502.49 528.93 503.01 527.08 502.95C528.64 502.8 528.95 502.27 528.9 500.75ZM460 488C460 486.75 461.06 486.75 463 488C464.21 488.78 464.07 488.97 462.25 488.98C461.01 488.99 460 488.55 460 488ZM434 480C434 479.45 434.67 479 435.5 479C436.33 479 437 479.45 437 480C437 480.55 436.33 481 435.5 481C434.67 481 434 480.55 434 480ZM419.89 484.61L422 485.64C422.91 486.08 425.71 486.8 429.1 487.51C426.54 487.04 424.5 486.66 423.01 486.35C422.27 486.2 421.64 486.2 421.1 485.97C420.63 485.78 420.23 485.41 419.89 484.61ZM495.58 498.54C501.15 499.47 508.24 500.53 512.5 501.06C515.49 501.42 518.22 501.82 519.96 502.13C508.96 500.72 503.84 499.97 495.58 498.54ZM27.88 499.5C30.88 499.03 34.09 498.52 37 498.05C43.88 496.94 54.67 495.34 61 494.49C67.06 493.68 73.18 492.79 79.08 491.88C73.18 492.79 67.07 493.68 61 494.49C54.67 495.34 44.1 496.92 37.5 498C34.11 498.55 30.89 499.06 27.88 499.5ZM113.06 486.7C112.92 486.8 112.78 486.87 112.62 486.93C112.17 487.09 111.64 487.06 111.05 487.02C110.91 487.02 110.77 487.01 110.63 487C110.75 487.01 110.87 487.01 110.99 487.02C111.63 487.05 112.19 487.07 112.67 486.9C112.81 486.85 112.94 486.78 113.06 486.7ZM4.5 501.63C4.76 501.7 5.08 501.76 5.44 501.81C5.04 501.78 4.74 501.73 4.55 501.66C4.53 501.65 4.51 501.64 4.5 501.63Z" fill="#024596"/>
</g>
<defs>
<clipPath id="clip0_10_85">
<rect width="531" height="508" fill="white"/>
</clipPath>
</defs>
</svg>
