<svg width="38" height="31" viewBox="0 0 38 31" fill="none" xmlns="http://www.w3.org/2000/svg">
<g clip-path="url(#clip0_35_306)">
<path d="M1.28813 30.5727C0.689867 30.646 0.304858 30.6484 0.254764 30.5788C0.232579 30.5483 0.22256 23.7094 0.232579 15.3809C0.249754 0.948197 0.256195 0.243984 0.375705 0.369692C0.444406 0.442311 0.500941 0.552153 0.500941 0.613787C0.500941 0.675421 0.550319 0.74987 0.610432 0.778551C0.670545 0.807232 0.736383 0.907311 0.756421 1.00129C0.776459 1.09526 0.884519 1.32715 0.996157 1.51633C1.1078 1.70611 1.35111 2.1766 1.53574 2.56288C1.72109 2.94855 1.89499 3.2915 1.92361 3.32568C1.95152 3.35924 2.051 3.55146 2.14546 3.75284C2.23921 3.95422 2.37446 4.20137 2.44531 4.30205C2.58557 4.50038 2.61205 4.54798 2.98633 5.27843C3.12373 5.54694 3.28546 5.86243 3.34629 5.9802C3.52019 6.31644 4.00038 7.14942 4.06407 7.22448C4.09555 7.2617 4.22866 7.5119 4.36034 7.7804C4.4913 8.04891 4.72674 8.5017 4.88346 8.78729C5.04019 9.07288 5.3064 9.5806 5.47529 9.91623C5.77586 10.513 6.02132 10.975 6.52942 11.8995C7.05111 12.8496 7.44256 13.5868 7.44256 13.6198C7.44256 13.6393 7.65224 14.0268 7.90772 14.4814C8.38719 15.3333 8.44659 15.4999 8.27055 15.4999C8.1861 15.4999 8.17393 15.6329 8.19827 16.2779C8.21473 16.7057 8.24264 19.846 8.26124 23.256C8.26267 23.5721 8.2641 23.8729 8.26554 24.1591C8.29201 29.013 8.29559 29.6403 8.06301 29.7123C8.02866 29.7227 7.98859 29.7214 7.94279 29.7196C7.9249 29.719 7.90557 29.7184 7.88554 29.7184C7.77962 29.7178 7.4354 29.7581 7.12053 29.8075C6.32546 29.932 5.33574 30.0644 4.36535 30.1755C3.91235 30.2273 3.14019 30.325 2.64783 30.3927C2.15548 30.4604 1.54433 30.5416 1.28813 30.5727ZM37.8497 30.5575C37.854 30.6734 37.8182 30.6948 37.6179 30.6948C37.4869 30.6948 37.3667 30.6832 37.3502 30.6691C37.3337 30.6551 37.0303 30.6136 36.6761 30.5764C36.3218 30.5385 35.6935 30.458 35.2806 30.3958C34.8677 30.3341 34.1907 30.2383 33.7778 30.1822C33.0049 30.0784 32.3401 29.9863 31.0942 29.8105C30.7006 29.755 30.2984 29.6763 30.1996 29.6354L30.0207 29.561L30.0028 22.5377C29.9864 16.3908 29.9706 15.5048 29.8776 15.4389C29.7316 15.3357 29.7416 15.2503 29.9441 14.8756C30.0393 14.6986 30.3478 14.1147 30.6297 13.5776C30.9117 13.0406 31.2172 12.464 31.3081 12.2961C31.3997 12.1283 31.5479 11.8397 31.6366 11.6554C31.7261 11.4711 31.8527 11.2514 31.9179 11.1672C31.983 11.083 32.1211 10.8359 32.2234 10.618C32.4331 10.1725 32.9899 9.09668 33.1552 8.8178C33.3777 8.44251 33.7778 7.69924 33.7778 7.66141C33.7778 7.64005 33.8708 7.45209 33.9846 7.244C34.2021 6.8443 34.8713 5.58904 35.0316 5.27843C35.0838 5.17774 35.1489 5.02702 35.1768 4.9428C35.2047 4.85859 35.282 4.7219 35.3493 4.63768C35.4159 4.55347 35.5139 4.38932 35.5669 4.27154C35.6198 4.15377 35.8023 3.80227 35.9726 3.48983C36.1429 3.17739 36.2825 2.90767 36.2825 2.89119C36.2825 2.8741 36.3605 2.71788 36.4557 2.54396C36.5508 2.36944 36.7798 1.93861 36.9652 1.5865C37.7116 0.164043 37.7431 0.122547 37.8111 0.475874C37.8354 0.600362 37.8526 7.38802 37.849 15.5609C37.8461 23.7332 37.8461 30.4818 37.8497 30.5575ZM34.4283 29.6787C34.6487 29.8929 34.9013 29.6311 34.6931 29.4029C34.5986 29.3004 34.5313 29.3022 33.4364 29.4383C33.3076 29.4542 33.2189 29.4432 33.2403 29.4145C33.2976 29.3358 33.0614 29.16 32.9283 29.182C32.8639 29.193 32.8117 29.2558 32.8117 29.3223C32.8117 29.4102 32.8675 29.4493 33.0128 29.4633C33.123 29.4743 33.2303 29.5201 33.2504 29.5652C33.279 29.6281 33.4099 29.6397 33.8071 29.614C34.2293 29.5866 34.346 29.5988 34.4283 29.6787ZM31.7368 29.6623C31.7869 29.7733 32.5197 29.7782 32.6485 29.6684C32.7816 29.5548 32.5984 29.4761 32.2034 29.4761C31.8348 29.4761 31.6803 29.5378 31.7368 29.6623ZM21.2421 29.4206C21.129 29.4822 20.2924 29.4804 20.0377 29.4188C19.886 29.3815 19.9117 29.3687 20.2087 29.3333C20.8814 29.2528 21.4625 29.3016 21.2421 29.4206ZM30.1044 29.4481C30.1474 29.5445 30.2018 29.5542 30.3757 29.4975C30.4823 29.4627 30.4816 29.4499 30.3707 29.3449C30.2812 29.2607 30.2254 29.2479 30.1574 29.2961C30.1066 29.3315 30.083 29.4005 30.1044 29.4481ZM33.9996 29.996C34.1206 30.0516 34.2086 30.0559 34.3066 30.0107C34.4304 29.9546 34.4326 29.9417 34.3288 29.8923C34.2651 29.8618 34.1263 29.8551 34.0211 29.8777L33.83 29.9186L33.9996 29.996ZM36.2997 30.2884C36.4922 30.3543 36.636 30.3292 36.5945 30.2371C36.5494 30.137 36.3147 30.1126 36.2503 30.2011C36.2281 30.2322 36.2503 30.2713 36.2997 30.2884ZM32.919 29.7794C32.919 29.813 32.9913 29.8398 33.08 29.8392C33.2103 29.8386 33.2203 29.827 33.1337 29.7794C32.9949 29.7031 32.919 29.7031 32.919 29.7794ZM31.0584 29.2912C31.0584 29.3248 31.1063 29.3523 31.1657 29.3523C31.2251 29.3523 31.2731 29.3248 31.2731 29.2912C31.2731 29.2577 31.2251 29.2302 31.1657 29.2302C31.1063 29.2302 31.0584 29.2577 31.0584 29.2912Z" fill="#818181"/>
<path d="M0 0H38L29.4482 0.0292913L33.5724 0.0457677C36.9108 0.0591929 37.7123 0.0775 37.7767 0.143405C37.7846 0.151949 37.7918 0.239213 37.7989 0.41374C37.7366 0.133642 37.6644 0.254468 36.9652 1.58661C36.7798 1.93872 36.5508 2.36955 36.4557 2.54407C36.3605 2.71799 36.2825 2.87421 36.2825 2.8913C36.2825 2.90778 36.1429 3.1775 35.9726 3.48994C35.8023 3.80238 35.6198 4.15388 35.5669 4.27165C35.5139 4.38943 35.4159 4.55358 35.3493 4.63779C35.282 4.72201 35.2047 4.8587 35.1768 4.94291C35.1489 5.02713 35.0838 5.17785 35.0316 5.27854C34.8713 5.58915 34.2021 6.84441 33.9846 7.24411C33.8708 7.4522 33.7778 7.64016 33.7778 7.66152C33.7778 7.69935 33.3777 8.44262 33.1552 8.81791C32.9899 9.09679 32.4331 10.1726 32.2234 10.6181C32.1211 10.836 31.983 11.0831 31.9179 11.1673C31.8527 11.2515 31.7261 11.4712 31.6366 11.6555C31.5479 11.8398 31.3997 12.1284 31.3081 12.2963C31.2172 12.4641 30.9117 13.0407 30.6297 13.5778C30.3478 14.1148 30.0393 14.6988 29.9441 14.8757C29.7416 15.2504 29.7316 15.3358 29.8776 15.439C29.9706 15.5049 29.9864 16.3909 30.0028 22.5379L30.0207 29.4982C29.9127 29.1223 29.9127 27.8786 29.9134 23.6168C29.9134 23.2762 29.9134 22.9162 29.9134 22.5366C29.9134 16.6295 29.8976 15.5391 29.8132 15.467C29.6786 15.3517 29.6078 15.431 29.4196 15.9082C29.338 16.1157 29.1255 16.5331 28.948 16.8346C28.7705 17.1367 28.6252 17.3972 28.6252 17.4143C28.6252 17.4314 28.271 18.0941 27.838 18.8868C27.4051 19.6795 27.0508 20.3392 27.0508 20.3514C27.0508 20.3642 26.9099 20.6303 26.7381 20.9427C26.5664 21.2551 26.3531 21.6481 26.2651 21.8159C26.0118 22.2962 25.3476 23.5252 24.9662 24.2178C24.7744 24.5657 24.6177 24.8696 24.6177 24.8928C24.6177 24.9166 24.5511 25.0532 24.4703 25.1966C24.3415 25.4237 23.2165 27.5345 22.7592 28.4065C22.6712 28.5743 22.5324 28.8385 22.4508 28.9935C22.3692 29.1485 22.2361 29.3109 22.1545 29.3548C22.0901 29.389 21.8489 29.4091 21.2435 29.4207C21.4611 29.3017 20.8807 29.2529 20.2087 29.3334C19.9117 29.3688 19.886 29.3817 20.0377 29.4189C20.0548 29.4231 20.0749 29.4268 20.0963 29.4305C19.765 29.4317 19.3829 29.4317 18.9442 29.4311C16.1711 29.4286 15.8691 29.4189 15.7482 29.3255C15.6745 29.2681 15.2844 28.5853 14.8815 27.8072C14.4786 27.0292 14.0765 26.2554 13.9877 26.0876C13.8983 25.9198 13.7136 25.5628 13.5777 25.2943C13.441 25.0258 12.8556 23.9139 12.2766 22.8228C11.6977 21.7317 11.0937 20.5924 10.9341 20.2904C10.7745 19.9883 10.4682 19.4256 10.2536 19.0394C10.0389 18.6531 9.79913 18.2003 9.72041 18.0325C9.64241 17.8647 9.51789 17.6309 9.4449 17.5138C9.3719 17.3966 9.14505 16.9707 8.94109 16.5679C8.58471 15.8643 8.32207 15.5073 8.2319 15.6062C8.22117 15.6178 8.21616 16.3116 8.21687 17.4357C8.20972 16.8267 8.20328 16.4147 8.19827 16.278C8.17394 15.633 8.1861 15.5 8.27055 15.5C8.44659 15.5 8.38719 15.3334 7.90772 14.4815C7.65224 14.0269 7.44256 13.6394 7.44256 13.6199C7.44256 13.5869 7.05111 12.8497 6.52942 11.8996C6.02132 10.9751 5.77586 10.5131 5.47529 9.91634C5.3064 9.58071 5.04019 9.07299 4.88346 8.7874C4.72674 8.50181 4.4913 8.04902 4.36034 7.78051C4.22866 7.51201 4.09556 7.26181 4.06407 7.22459C4.00038 7.14953 3.52019 6.31655 3.34629 5.98031C3.28546 5.86254 3.12373 5.54705 2.98633 5.27854C2.61205 4.54809 2.58557 4.50049 2.44531 4.30217C2.37446 4.20148 2.23921 3.95433 2.14546 3.75295C2.051 3.55157 1.95153 3.35935 1.92362 3.32579C1.89499 3.29161 1.72109 2.94866 1.53574 2.56299C1.35111 2.17671 1.1078 1.70622 0.996158 1.51644C0.88452 1.32726 0.776459 1.09537 0.756422 1.0014C0.736384 0.907421 0.670546 0.807342 0.610433 0.778661C0.55032 0.74998 0.500942 0.675531 0.500942 0.613898C0.500942 0.552264 0.444407 0.442421 0.375706 0.369803C0.256196 0.244094 0.249755 0.948308 0.23258 15.381C0.224708 22.0991 0.229718 27.8481 0.243315 29.8363C0.20968 28.5822 0.206817 25.3346 0.20968 16.9804C0.212542 9.50382 0.196798 2.68443 0.174614 1.82583C0.139548 0.457067 0.148136 0.255689 0.246177 0.186122C0.335631 0.122657 1.21729 0.109232 4.62154 0.117776C6.96595 0.123878 8.95612 0.151949 9.04343 0.18002C9.26742 0.252638 9.32682 0.327697 9.64742 0.950138C9.99593 1.62506 10.202 1.99852 11.4344 4.18012C11.9646 5.11988 12.472 6.02608 12.5608 6.1939C12.6495 6.36171 13.0803 7.12512 13.5176 7.89096C13.9548 8.6562 14.3126 9.29085 14.3126 9.30061C14.3126 9.32502 15.5328 11.4883 17.0671 14.1855C17.6832 15.2681 18.1742 16.1475 18.5069 16.7626C18.6007 16.9365 18.678 17.1354 18.678 17.205C18.678 17.3667 18.922 17.374 19.0802 17.2166C19.1431 17.1543 19.3049 16.8865 19.4394 16.6216C19.7192 16.073 19.7571 16.0041 20.5043 14.6762C20.807 14.1392 21.1676 13.4935 21.3072 13.2421C21.446 12.9907 21.9255 12.1327 22.3728 11.3357C22.82 10.5394 23.1864 9.87606 23.1864 9.86264C23.1864 9.83762 23.6423 9.02295 24.7279 7.10925C25.2811 6.13409 26.0654 4.71957 26.7066 3.53937C26.8619 3.25439 27.0966 2.82844 27.2283 2.5935C28.095 1.049 28.3268 0.623661 28.374 0.488189C28.4406 0.299016 28.6159 0.123268 28.8041 0.0579724C28.8049 0.0573622 28.8049 0.0573622 28.8049 0.0573622C28.8049 0.0299016 22.3864 0.00610236 14.4736 0.00366142L0 0ZM34.4283 29.6788C34.346 29.5989 34.2293 29.5867 33.8071 29.6142C33.4099 29.6398 33.279 29.6282 33.2504 29.5653C33.2303 29.5202 33.123 29.4744 33.0128 29.4634C32.8675 29.4494 32.8117 29.4103 32.8117 29.3225C32.8117 29.2559 32.8639 29.1931 32.9283 29.1821C33.0614 29.1601 33.2976 29.3359 33.2403 29.4146C33.2189 29.4433 33.3076 29.4543 33.4364 29.4384C34.5313 29.3023 34.5986 29.3005 34.6931 29.403C34.9013 29.6312 34.6487 29.893 34.4283 29.6788ZM31.7368 29.6624C31.6803 29.5379 31.8348 29.4762 32.2034 29.4762C32.5984 29.4762 32.7816 29.555 32.6485 29.6685C32.5197 29.7783 31.7869 29.7734 31.7368 29.6624ZM30.1044 29.4482C30.083 29.4006 30.1066 29.3316 30.1574 29.2962C30.2254 29.248 30.2812 29.2608 30.3707 29.345C30.4816 29.45 30.4823 29.4628 30.3757 29.4976C30.2018 29.5543 30.1474 29.5446 30.1044 29.4482ZM33.9996 29.9962L33.83 29.9187L34.0211 29.8778C34.1263 29.8552 34.2651 29.8619 34.3288 29.8924C34.4326 29.9418 34.4304 29.9547 34.3066 30.0108C34.2086 30.056 34.1206 30.0517 33.9996 29.9962ZM36.2997 30.2885C36.2503 30.2714 36.2281 30.2323 36.2503 30.2012C36.3147 30.1127 36.5494 30.1371 36.5945 30.2372C36.636 30.3293 36.4922 30.3544 36.2997 30.2885ZM37.8497 30.5576C37.8461 30.4819 37.8461 23.7333 37.849 15.561C37.8512 10.6938 37.8461 6.31777 37.8361 3.54791C37.8483 5.95835 37.8519 9.76439 37.8497 15.323C37.8461 23.6265 37.8469 30.4856 37.8504 30.5661C37.8547 30.6638 37.8519 30.6955 37.7195 30.6918C37.8311 30.6827 37.8533 30.6503 37.8497 30.5576ZM32.919 29.7795C32.919 29.7032 32.9949 29.7032 33.1337 29.7795C33.2203 29.8271 33.2103 29.8387 33.08 29.8393C32.9913 29.8399 32.919 29.8131 32.919 29.7795ZM31.0584 29.2913C31.0584 29.2578 31.1063 29.2303 31.1657 29.2303C31.2251 29.2303 31.2731 29.2578 31.2731 29.2913C31.2731 29.3249 31.2251 29.3524 31.1657 29.3524C31.1063 29.3524 31.0584 29.3249 31.0584 29.2913ZM30.0486 29.5727L30.1996 29.6355C30.2647 29.6624 30.4651 29.7063 30.7077 29.7496C30.5245 29.7209 30.3785 29.6978 30.2719 29.6788C30.2189 29.6697 30.1739 29.6697 30.1352 29.6556C30.1016 29.6441 30.073 29.6215 30.0486 29.5727ZM35.4652 30.4227C35.8638 30.4795 36.3712 30.5441 36.6761 30.5765C36.8901 30.5985 37.0854 30.6229 37.2099 30.6418C36.4228 30.5557 36.0563 30.51 35.4652 30.4227ZM1.99518 30.4813C2.20987 30.4526 2.43959 30.4215 2.64783 30.3928C3.14019 30.3251 3.91235 30.2274 4.36535 30.1756C4.79902 30.1261 5.23699 30.0718 5.65921 30.0163C5.23699 30.0718 4.79974 30.1261 4.36535 30.1756C3.91235 30.2274 3.15593 30.3239 2.68362 30.3898C2.44102 30.4233 2.21058 30.4544 1.99518 30.4813ZM8.09092 29.7002C8.0809 29.7063 8.07089 29.7106 8.05943 29.7142C8.02723 29.724 7.9893 29.7222 7.94708 29.7197C7.93706 29.7197 7.92704 29.7191 7.91702 29.7185C7.92561 29.7191 7.9342 29.7191 7.94279 29.7197C7.98859 29.7216 8.02866 29.7228 8.06301 29.7124C8.07303 29.7093 8.08233 29.7051 8.09092 29.7002ZM0.322034 30.6113C0.34064 30.6155 0.363541 30.6192 0.389303 30.6223C0.360678 30.6204 0.339209 30.6174 0.325612 30.6131C0.324181 30.6125 0.32275 30.6119 0.322034 30.6113Z" fill="#595959"/>
</g>
<defs>
<clipPath id="clip0_35_306">
<rect width="38" height="31" fill="white"/>
</clipPath>
</defs>
</svg>
